<?xml version="1.0" encoding="UTF-8" standalone="no"?>
<!-- Created with Inkscape (http://www.inkscape.org/) -->
<svg
   xmlns:dc="http://purl.org/dc/elements/1.1/"
   xmlns:cc="http://creativecommons.org/ns#"
   xmlns:rdf="http://www.w3.org/1999/02/22-rdf-syntax-ns#"
   xmlns:svg="http://www.w3.org/2000/svg"
   xmlns="http://www.w3.org/2000/svg"
   xmlns:sodipodi="http://sodipodi.sourceforge.net/DTD/sodipodi-0.dtd"
   xmlns:inkscape="http://www.inkscape.org/namespaces/inkscape"
   width="744.09448819"
   height="1052.3622047"
   id="svg2"
   sodipodi:version="0.32"
   inkscape:version="0.45+devel"
   sodipodi:docname="logo.svg"
   inkscape:output_extension="org.inkscape.output.svg.inkscape">
  <defs
     id="defs4">
    <inkscape:perspective
       sodipodi:type="inkscape:persp3d"
       inkscape:vp_x="0 : 526.18109 : 1"
       inkscape:vp_y="0 : 1000 : 0"
       inkscape:vp_z="744.09448 : 526.18109 : 1"
       inkscape:persp3d-origin="372.04724 : 350.78739 : 1"
       id="perspective10" />
  </defs>
  <sodipodi:namedview
     id="base"
     pagecolor="#ffffff"
     bordercolor="#666666"
     borderopacity="1.0"
     gridtolerance="10000"
     guidetolerance="10"
     objecttolerance="10"
     inkscape:pageopacity="0.0"
     inkscape:pageshadow="2"
     inkscape:zoom="1.4"
     inkscape:cx="382.13832"
     inkscape:cy="483.68522"
     inkscape:document-units="px"
     inkscape:current-layer="layer1"
     showgrid="false"
     inkscape:window-width="1207"
     inkscape:window-height="816"
     inkscape:window-x="0"
     inkscape:window-y="22" />
  <metadata
     id="metadata7">
    <rdf:RDF>
      <cc:Work
         rdf:about="">
        <dc:format>image/svg+xml</dc:format>
        <dc:type
           rdf:resource="http://purl.org/dc/dcmitype/StillImage" />
      </cc:Work>
    </rdf:RDF>
  </metadata>
  <g
     inkscape:label="Layer 1"
     inkscape:groupmode="layer"
     id="layer1">
    <path
       sodipodi:type="star"
       style="opacity:1;fill:#ffff00;fill-opacity:1;stroke:#696969;stroke-opacity:1;stroke-width:5.02201948999999992;stroke-miterlimit:4;stroke-dasharray:none"
       id="path2436"
       sodipodi:sides="12"
       sodipodi:cx="302.85715"
       sodipodi:cy="474.50504"
       sodipodi:r1="119.26647"
       sodipodi:r2="89.370094"
       sodipodi:arg1="0.97282728"
       sodipodi:arg2="1.2346267"
       inkscape:flatsided="false"
       inkscape:rounded="0.38"
       inkscape:randomized="0"
       d="M 370.00001,573.07647 C 357.35854,581.68732 346.77735,553.82706 332.33798,558.87265 317.8986,563.91824 326.97211,592.30535 311.71885,593.44183 296.46559,594.57832 301.23215,565.16002 286.20449,562.30995 271.17683,559.45987 264.84116,588.58058 251.06321,581.93818 237.28526,575.29577 256.12237,552.20206 244.53306,542.21999 232.94377,532.23792 212.89657,554.28936 204.28571,541.6479 195.67486,529.00643 223.53513,518.42524 218.48953,503.98587 213.44394,489.54649 185.05684,498.62 183.92035,483.36674 182.78387,468.11348 212.20216,472.88004 215.05223,457.85238 217.90231,442.82472 188.7816,436.48905 195.42401,422.7111 202.06641,408.93315 225.16012,427.77025 235.14219,416.18095 245.12426,404.59165 223.07282,384.54446 235.71429,375.9336 248.35576,367.32275 258.93694,395.18302 273.37632,390.13742 287.81569,385.09183 278.74218,356.70472 293.99544,355.56824 309.2487,354.43175 304.48214,383.85005 319.50981,386.70012 334.53747,389.5502 340.87313,360.42949 354.65108,367.0719 368.42904,373.7143 349.59193,396.80801 361.18123,406.79008 372.77053,416.77215 392.81773,394.72071 401.42858,407.36218 410.03944,420.00364 382.17917,430.58483 387.22476,445.0242 392.27036,459.46358 420.65746,450.39007 421.79394,465.64333 422.93043,480.89659 393.51213,476.13003 390.66206,491.15769 387.81199,506.18536 416.93269,512.52102 410.29029,526.29897 403.64788,540.07692 380.55417,521.23982 370.5721,532.82912 360.59004,544.41842 382.64147,564.46562 370.00001,573.07647 z"
       transform="matrix(1.1188726,0,0,1.1188726,40.896348,3.1969774)"
       inkscape:export-filename="/Users/norman/mediaoca/public/apple-touch-icon.png"
       inkscape:export-xdpi="14.9"
       inkscape:export-ydpi="14.9" />
    <g
       id="g2440"
       transform="translate(-2,-11.881054)"
       inkscape:export-filename="/Users/norman/mediaoca/public/apple-touch-icon.png"
       inkscape:export-xdpi="14.9"
       inkscape:export-ydpi="14.9">
      <text
         id="text2428"
         y="549.50507"
         x="285.11429"
         style="font-size:64px;font-style:normal;font-variant:normal;font-weight:normal;font-stretch:normal;writing-mode:lr-tb;fill:#000080;fill-opacity:1;stroke:none;font-family:Futura;-inkscape-font-specification:Futura"
         xml:space="preserve"><tspan
           y="549.50507"
           x="285.11429"
           id="tspan2430"
           sodipodi:role="line">Media</tspan></text>
      <text
         id="text2432"
         y="597.84229"
         x="325.41989"
         style="font-size:45.033638px;font-style:normal;font-variant:normal;font-weight:normal;font-stretch:normal;writing-mode:lr-tb;fill:#ff0000;fill-opacity:1;stroke:none;font-family:Futura;-inkscape-font-specification:Futura"
         xml:space="preserve"><tspan
           y="597.84229"
           x="325.41989"
           id="tspan2434"
           sodipodi:role="line">(oca)</tspan></text>
    </g>
  </g>
</svg>
